<?xml version="1.0" standalone="no"?>
<!DOCTYPE svg PUBLIC "-//W3C//DTD SVG 20010904//EN"
 "http://www.w3.org/TR/2001/REC-SVG-20010904/DTD/svg10.dtd">
<svg version="1.0" xmlns="http://www.w3.org/2000/svg"
 width="700.000000pt" height="700.000000pt" viewBox="0 0 700.000000 700.000000"
 preserveAspectRatio="xMidYMid meet">
<metadata>
Created by potrace 1.14, written by Peter Selinger 2001-2017
</metadata>
<g transform="translate(0.000000,700.000000) scale(0.100000,-0.100000)"
fill="#000000" stroke="none">
<path d="M3304 5324 c-93 -59 -207 -131 -254 -161 -47 -30 -94 -59 -104 -66
-10 -7 -73 -47 -140 -90 -67 -42 -134 -84 -150 -93 -16 -9 -72 -44 -125 -78
-99 -64 -428 -273 -458 -291 -9 -5 -49 -31 -87 -56 -39 -25 -104 -65 -143 -90
-71 -43 -91 -69 -85 -109 6 -32 26 -59 48 -64 13 -4 776 -6 1695 -7 1832 0
1710 -4 1725 58 13 51 -6 74 -131 155 -66 43 -145 92 -175 110 -30 17 -57 34
-60 38 -3 3 -45 31 -95 61 -49 31 -351 221 -669 423 -319 201 -589 366 -601
366 -12 0 -98 -48 -191 -106z"/>
<path d="M2313 4142 c-192 -2 -193 -3 -194 -25 0 -12 -1 -520 -1 -1128 -1
-1001 1 -1110 16 -1155 21 -63 63 -114 123 -150 l48 -29 1190 0 1190 0 50 26
c56 29 109 91 125 147 6 24 10 422 10 1175 l0 1137 -237 0 c-131 0 -663 2
-1183 3 -520 1 -1032 1 -1137 -1z"/>
</g>
</svg>
